<svg version="1.1" id="Layer_1" xmlns="http://www.w3.org/2000/svg" xmlns:xlink="http://www.w3.org/1999/xlink" x="0px" y="0px"
	 width="100%" viewBox="0 0 128 128" enable-background="new 0 0 128 128" xml:space="preserve">
<path fill="#4C6971" opacity="1.000000" stroke="none" 
	d="
M71.000000,129.000000 
	C47.333332,129.000000 24.166666,129.000000 1.000000,129.000000 
	C1.000000,86.333336 1.000000,43.666668 1.000000,1.000000 
	C43.666668,1.000000 86.333336,1.000000 129.000000,1.000000 
	C129.000000,43.666668 129.000000,86.333336 129.000000,129.000000 
	C109.833336,129.000000 90.666664,129.000000 71.000000,129.000000 
M67.420639,117.000473 
	C76.447495,117.149246 84.605286,114.404800 92.358383,109.912773 
	C120.131393,93.821548 125.631721,53.168613 103.542442,29.901947 
	C86.937630,12.412085 58.566349,8.709787 38.401814,21.213095 
	C16.524279,34.778572 9.022782,59.315266 16.339626,82.187202 
	C23.108017,103.344711 43.390278,118.231728 67.420639,117.000473 
z"/>
<path fill="#0063DB" opacity="1.000000" stroke="none" 
	d="
M66.940323,117.000481 
	C43.390278,118.231728 23.108017,103.344711 16.339626,82.187202 
	C9.022782,59.315266 16.524279,34.778572 38.401814,21.213095 
	C58.566349,8.709787 86.937630,12.412085 103.542442,29.901947 
	C125.631721,53.168613 120.131393,93.821548 92.358383,109.912773 
	C84.605286,114.404800 76.447495,117.149246 66.940323,117.000481 
M57.269562,69.643768 
	C55.855022,73.357597 54.440487,77.071419 53.025951,80.785248 
	C54.643833,80.432159 55.730724,79.665298 55.872948,78.751411 
	C56.965553,71.730812 61.401127,70.629639 67.619926,71.073830 
	C71.044128,71.318405 72.708046,72.369064 73.710190,75.451622 
	C74.394730,77.557205 75.563904,79.505234 76.516396,81.523705 
	C77.047272,81.271935 77.578148,81.020157 78.109016,80.768387 
	C74.036583,70.629700 69.964149,60.491016 65.533165,49.459682 
	C62.653118,56.528088 60.123074,62.737503 57.269562,69.643768 
z"/>
<path fill="#D9E8FA" opacity="1.000000" stroke="none" 
	d="
M57.431293,69.295349 
	C60.123074,62.737503 62.653118,56.528088 65.533165,49.459682 
	C69.964149,60.491016 74.036583,70.629700 78.109016,80.768387 
	C77.578148,81.020157 77.047272,81.271935 76.516396,81.523705 
	C75.563904,79.505234 74.394730,77.557205 73.710190,75.451622 
	C72.708046,72.369064 71.044128,71.318405 67.619926,71.073830 
	C61.401127,70.629639 56.965553,71.730812 55.872948,78.751411 
	C55.730724,79.665298 54.643833,80.432159 53.025951,80.785248 
	C54.440487,77.071419 55.855022,73.357597 57.431293,69.295349 
M66.794296,58.151207 
	C66.388794,57.365627 65.983292,56.580048 65.305786,55.267506 
	C63.391251,60.056969 61.693573,64.303940 59.878262,68.845184 
	C63.783905,68.845184 67.165268,68.845184 70.921539,68.845184 
	C69.538986,65.272041 68.290710,62.045906 66.794296,58.151207 
z"/>
<path fill="#0566DC" opacity="1.000000" stroke="none" 
	d="
M66.918365,58.485489 
	C68.290710,62.045906 69.538986,65.272041 70.921539,68.845184 
	C67.165268,68.845184 63.783905,68.845184 59.878262,68.845184 
	C61.693573,64.303940 63.391251,60.056969 65.305786,55.267506 
	C65.983292,56.580048 66.388794,57.365627 66.918365,58.485489 
z"/>
</svg>